<svg xmlns="http://www.w3.org/2000/svg" viewBox="1480 450 1850 2400" width="800" height="600">
  <path fill-rule="nonzero" fill="rgb(36.132812%, 75.866699%, 20.03479%)" fill-opacity="1" d="M 2551.550781 2232.800781 C 2556.238281 2217.609375 2561.128906 2202.679688 2566.351562 2188.019531 C 2563.140625 2203.011719 2560.519531 2217.941406 2558.578125 2232.800781 L 2551.550781 2232.800781 "/>
  <path fill-rule="nonzero" fill="rgb(14, 24, 41)" fill-opacity="1" d="M 3121.019531 1010.660156 L 2707.929688 1010.660156 L 2707.929688 597.5 C 2707.929688 516.699219 2642.390625 451.230469 2561.601562 451.230469 L 2191.550781 451.230469 C 2110.679688 451.230469 2045.210938 516.699219 2045.210938 597.5 L 2045.210938 1010.660156 L 1632.050781 1010.660156 C 1551.25 1010.660156 1485.789062 1076.128906 1485.789062 1156.988281 L 1485.789062 1527.039062 C 1485.789062 1595.988281 1533.449219 1653.828125 1597.640625 1669.289062 C 1739.890625 1634.28125 1856.300781 1617.820312 1959.660156 1617.820312 C 2091.710938 1617.820312 2203.78125 1646.410156 2299.300781 1705.640625 C 2299.300781 1705.640625 2207.949219 1601.03125 2207.949219 1526.308594 C 2207.949219 1407.488281 2304.609375 1310.820312 2423.429688 1310.820312 C 2542.25 1310.820312 2638.910156 1407.488281 2638.910156 1526.308594 C 2638.910156 1551.011719 2634.761719 1574.710938 2627.058594 1596.800781 C 2708.671875 1531.929688 2807.671875 1501.808594 2900.851562 1473.421875 C 3047.320312 1428.910156 3185.621094 1386.800781 3258.648438 1222.929688 L 3267.359375 1203.378906 L 3267.359375 1156.988281 C 3267.359375 1076.128906 3201.820312 1010.660156 3121.019531 1010.660156 "/>
  <path fill-rule="nonzero" fill="rgb(20, 140, 140)" fill-opacity="1" d="M 3301.429688 1241.96875 C 3453.511719 2329.699219 2183.941406 1989.160156 2937.75 2848.769531 C 2457.808594 2472.671875 2500.019531 2073.980469 3005.511719 1655.238281 C 2755.910156 1737.890625 2567.460938 1962.710938 2488.109375 2286.71875 C 2468.21875 2027.660156 2353.808594 1838.859375 2107.898438 1747.808594 C 2363.269531 1913.808594 2374.53125 2134.21875 2203.078125 2162.570312 C 1992.179688 2197.449219 1992.179688 1873.449219 1532.628906 1734.589844 C 2015.328125 1602.339844 2305.46875 1640.339844 2498.03125 1999.078125 C 2541.011719 1360.988281 3112.96875 1665.160156 3301.429688 1241.96875 "/>
  <path fill-rule="nonzero" fill="rgb(20,140,140)" fill-opacity="1" d="M 2592.03125 1526.300781 C 2592.03125 1619.421875 2516.539062 1694.910156 2423.421875 1694.910156 C 2330.300781 1694.910156 2254.808594 1619.421875 2254.808594 1526.300781 C 2254.808594 1433.179688 2330.300781 1357.679688 2423.421875 1357.679688 C 2516.539062 1357.679688 2592.03125 1433.179688 2592.03125 1526.300781 "/>
</svg>
